# This file uses centimeters as units for non-parametric coordinates.

mtllib Paper_01.mtl
g default
v -81.942911 -56.556107 0.000000
v 77.994222 -56.556107 0.000000
v -81.942911 46.731369 0.000000
v 77.994222 46.731369 0.000000
v -81.942911 -56.556107 0.982409
v 77.994222 -56.556107 0.982409
v -81.942911 46.731369 0.982409
v 77.994222 46.731369 0.982409
v -81.942911 -56.556107 1.942181
v 77.994222 -56.556107 1.942181
v -81.942911 46.731369 1.942181
v 77.994222 46.731369 1.942181
v -76.485674 -64.145828 4.321208
v 82.666487 -48.468033 2.157788
v -86.615175 38.643295 4.033031
v 72.536985 54.321091 1.869611
v -87.549570 -46.592545 4.986451
v 71.220464 -65.773331 2.971107
v -75.169153 55.948593 4.402404
v 83.600881 36.767807 2.387059
vt 0.000000 0.000000
vt 1.000000 0.000000
vt 0.000000 0.645800
vt 1.000000 0.645800
vt 0.000000 0.000000
vt 1.000000 0.000000
vt 1.000000 0.645800
vt 0.000000 0.645800
vt 0.000000 0.000000
vt 1.000000 0.000000
vt 1.000000 0.645800
vt 0.000000 0.645800
vt 0.000000 0.000000
vt 1.000000 0.000000
vt 1.000000 0.645800
vt 0.000000 0.645800
vt 0.000000 0.000000
vt 1.000000 0.000000
vt 1.000000 0.645800
vt 0.000000 0.645800
vn 0.000000 0.000000 1.000000
vn 0.000000 0.000000 1.000000
vn 0.000000 0.000000 1.000000
vn 0.000000 0.000000 1.000000
vn 0.000000 0.000000 1.000000
vn 0.000000 0.000000 1.000000
vn 0.000000 0.000000 1.000000
vn 0.000000 0.000000 1.000000
vn 0.000000 0.000000 1.000000
vn 0.000000 0.000000 1.000000
vn 0.000000 0.000000 1.000000
vn 0.000000 0.000000 1.000000
vn 0.013188 0.004103 0.999905
vn 0.013188 0.004103 0.999905
vn 0.013188 0.004103 0.999905
vn 0.013188 0.004103 0.999905
vn 0.013188 0.004103 0.999905
vn 0.013188 0.004103 0.999905
vn 0.013188 0.004103 0.999905
vn 0.013188 0.004103 0.999905
s off
g pPlane6
usemtl blinn6SG
f 1/1/1 2/2/2 4/4/3 3/3/4
f 5/5/5 6/6/6 8/7/7 7/8/8
f 9/9/9 10/10/10 12/11/11 11/12/12
f 13/13/13 14/14/14 16/15/15 15/16/16
f 17/17/17 18/18/18 20/19/19 19/20/20
